<svg width="19" height="18" viewBox="0 0 19 18" fill="none" xmlns="http://www.w3.org/2000/svg">
<path d="M0.477256 2.76641C0.975796 3.25782 1.47434 3.74924 1.97288 4.24066C3.1636 5.41438 4.35433 6.58809 5.54506 7.76181C6.98711 9.18327 8.42505 10.6007 9.86711 12.0221C11.1155 13.2527 12.3639 14.4833 13.6165 15.7179C14.2221 16.3149 14.8154 16.9201 15.4293 17.5049C15.4376 17.513 15.4458 17.5211 15.4541 17.5292C16.0638 18.1303 17.1845 18.175 17.7861 17.5292C18.3917 16.8794 18.437 15.8722 17.7861 15.2305C17.2875 14.7391 16.789 14.2477 16.2904 13.7563C15.0997 12.5826 13.909 11.4089 12.7183 10.2351C11.2762 8.81369 9.83827 7.39629 8.39621 5.97484C7.1478 4.74426 5.89939 3.51369 4.64686 2.27905C4.0412 1.68204 3.44789 1.0769 2.83399 0.492075C2.82575 0.483953 2.81751 0.47583 2.80927 0.467708C2.19948 -0.133365 1.0788 -0.17804 0.477256 0.467708C-0.128408 1.11752 -0.17373 2.12472 0.477256 2.76641Z" fill="#C1C5CC"/>
<path d="M15.4513 0.474062C14.9527 0.96548 14.4542 1.4569 13.9557 1.94832C12.7649 3.12203 11.5742 4.29575 10.3835 5.46947C8.94142 6.89092 7.50348 8.30832 6.06143 9.72977C4.81302 10.9604 3.56461 12.1909 2.31208 13.4256C1.70641 14.0226 1.09251 14.6074 0.499207 15.2125C0.490966 15.2207 0.482726 15.2288 0.474486 15.2369C-0.135298 15.838 -0.18062 16.9427 0.474486 17.5356C1.13371 18.1326 2.15551 18.1773 2.8065 17.5356C3.30504 17.0442 3.80358 16.5528 4.30212 16.0613C5.49284 14.8876 6.68357 13.7139 7.8743 12.5402C9.31636 11.1187 10.7543 9.70135 12.1964 8.27989C13.4448 7.04931 14.6932 5.81874 15.9457 4.5841C16.5514 3.98709 17.1653 3.40226 17.7586 2.79713C17.7668 2.78901 17.7751 2.78088 17.7833 2.77276C18.3931 2.17169 18.4384 1.06701 17.7833 0.474062C17.1241 -0.12295 16.1023 -0.167624 15.4513 0.474062Z" fill="#C1C5CC"/>
</svg>