<svg width="56" height="56" viewBox="0 0 56 56" fill="none" xmlns="http://www.w3.org/2000/svg">
<rect x="0.5" y="0.5" width="55" height="55" rx="27.5" stroke="#5C594D"/>
<g clip-path="url(#clip0_409_12217)">
<path d="M28 12C19.1635 12 12 19.1635 12 28C12 35.5034 17.1661 41.7997 24.135 43.529V32.8896H20.8358V28H24.135V25.8931C24.135 20.4474 26.5997 17.9232 31.9462 17.9232C32.96 17.9232 34.7091 18.1222 35.4246 18.3206V22.7526C35.047 22.713 34.391 22.6931 33.5763 22.6931C30.953 22.6931 29.9392 23.687 29.9392 26.2707V28H35.1654L34.2675 32.8896H29.9392V43.8829C37.8618 42.9261 44.0006 36.1805 44.0006 28C44 19.1635 36.8365 12 28 12Z" fill="#EDEBDE"/>
</g>
<defs>
<clipPath id="clip0_409_12217">
<rect width="32" height="32" fill="white" transform="translate(12 12)"/>
</clipPath>
</defs>
</svg>
