<svg width="56" height="56" viewBox="0 0 56 56" fill="none" xmlns="http://www.w3.org/2000/svg">
<rect x="0.5" y="0.5" width="55" height="55" rx="27.5" stroke="#5C594D"/>
<g clip-path="url(#clip0_409_12218)">
<path d="M28 14.8812C32.275 14.8812 32.7813 14.9 34.4625 14.975C36.025 15.0437 36.8688 15.3063 37.4313 15.525C38.175 15.8125 38.7125 16.1625 39.2688 16.7188C39.8313 17.2812 40.175 17.8125 40.4625 18.5563C40.6813 19.1188 40.9438 19.9688 41.0125 21.525C41.0875 23.2125 41.1063 23.7188 41.1063 27.9875C41.1063 32.2625 41.0875 32.7688 41.0125 34.45C40.9438 36.0125 40.6813 36.8563 40.4625 37.4188C40.175 38.1625 39.825 38.7 39.2688 39.2563C38.7063 39.8188 38.175 40.1625 37.4313 40.45C36.8688 40.6688 36.0188 40.9313 34.4625 41C32.775 41.075 32.2688 41.0938 28 41.0938C23.725 41.0938 23.2188 41.075 21.5375 41C19.975 40.9313 19.1313 40.6688 18.5688 40.45C17.825 40.1625 17.2875 39.8125 16.7313 39.2563C16.1688 38.6938 15.825 38.1625 15.5375 37.4188C15.3188 36.8563 15.0563 36.0063 14.9875 34.45C14.9125 32.7625 14.8938 32.2563 14.8938 27.9875C14.8938 23.7125 14.9125 23.2063 14.9875 21.525C15.0563 19.9625 15.3188 19.1188 15.5375 18.5563C15.825 17.8125 16.175 17.275 16.7313 16.7188C17.2938 16.1562 17.825 15.8125 18.5688 15.525C19.1313 15.3063 19.9813 15.0437 21.5375 14.975C23.2188 14.9 23.725 14.8812 28 14.8812ZM28 12C23.6563 12 23.1125 12.0187 21.4063 12.0938C19.7063 12.1688 18.5375 12.4437 17.525 12.8375C16.4688 13.25 15.575 13.7938 14.6875 14.6875C13.7938 15.575 13.25 16.4688 12.8375 17.5188C12.4437 18.5375 12.1688 19.7 12.0938 21.4C12.0188 23.1125 12 23.6562 12 28C12 32.3438 12.0188 32.8875 12.0938 34.5938C12.1688 36.2938 12.4437 37.4625 12.8375 38.475C13.25 39.5313 13.7938 40.425 14.6875 41.3125C15.575 42.2 16.4688 42.75 17.5188 43.1562C18.5375 43.55 19.7 43.825 21.4 43.9C23.1063 43.975 23.65 43.9937 27.9938 43.9937C32.3375 43.9937 32.8813 43.975 34.5875 43.9C36.2875 43.825 37.4563 43.55 38.4688 43.1562C39.5188 42.75 40.4125 42.2 41.3 41.3125C42.1875 40.425 42.7375 39.5313 43.1438 38.4813C43.5375 37.4625 43.8125 36.3 43.8875 34.6C43.9625 32.8938 43.9813 32.35 43.9813 28.0063C43.9813 23.6625 43.9625 23.1188 43.8875 21.4125C43.8125 19.7125 43.5375 18.5438 43.1438 17.5312C42.75 16.4688 42.2063 15.575 41.3125 14.6875C40.425 13.8 39.5313 13.25 38.4813 12.8438C37.4625 12.45 36.3 12.175 34.6 12.1C32.8875 12.0188 32.3438 12 28 12Z" fill="#EDEBDE"/>
<path d="M28 19.7812C23.4625 19.7812 19.7812 23.4625 19.7812 28C19.7812 32.5375 23.4625 36.2188 28 36.2188C32.5375 36.2188 36.2188 32.5375 36.2188 28C36.2188 23.4625 32.5375 19.7812 28 19.7812ZM28 33.3312C25.0563 33.3312 22.6687 30.9438 22.6687 28C22.6687 25.0563 25.0563 22.6687 28 22.6687C30.9438 22.6687 33.3312 25.0563 33.3312 28C33.3312 30.9438 30.9438 33.3312 28 33.3312Z" fill="#EDEBDE"/>
<path d="M38.4625 19.4559C38.4625 20.5184 37.6 21.3746 36.5438 21.3746C35.4813 21.3746 34.625 20.5121 34.625 19.4559C34.625 18.3934 35.4875 17.5371 36.5438 17.5371C37.6 17.5371 38.4625 18.3996 38.4625 19.4559Z" fill="#EDEBDE"/>
</g>
<defs>
<clipPath id="clip0_409_12218">
<rect width="32" height="32" fill="white" transform="translate(12 12)"/>
</clipPath>
</defs>
</svg>
