<svg width="56" height="56" viewBox="0 0 56 56" fill="none" xmlns="http://www.w3.org/2000/svg">
<rect x="0.5" y="0.5" width="55" height="55" rx="27.5" stroke="#5C594D"/>
<path d="M40 24L40 16M40 16H32M40 16L29.3333 26.6667M25.3333 18.6667H22.4C20.1598 18.6667 19.0397 18.6667 18.184 19.1026C17.4314 19.4861 16.8195 20.0981 16.436 20.8507C16 21.7064 16 22.8265 16 25.0667V33.6C16 35.8402 16 36.9603 16.436 37.816C16.8195 38.5686 17.4314 39.1805 18.184 39.564C19.0397 40 20.1598 40 22.4 40H30.9333C33.1735 40 34.2936 40 35.1493 39.564C35.9019 39.1805 36.5139 38.5686 36.8974 37.816C37.3333 36.9603 37.3333 35.8402 37.3333 33.6V30.6667" stroke="#EDEBDE" stroke-width="2" stroke-linecap="round" stroke-linejoin="round"/>
</svg>
