<svg width="98" height="24" viewBox="0 0 98 24" fill="none" xmlns="http://www.w3.org/2000/svg">
<path d="M5.28809 7.04688V17H3.58594V7.04688H5.28809ZM8.41211 7.04688V8.41406H0.489258V7.04688H8.41211ZM16.2393 15.6396V17H10.9551V15.6396H16.2393ZM11.4404 7.04688V17H9.72461V7.04688H11.4404ZM15.5488 11.2031V12.543H10.9551V11.2031H15.5488ZM16.2051 7.04688V8.41406H10.9551V7.04688H16.2051ZM23.875 15.6396V17H18.8779V15.6396H23.875ZM19.3564 7.04688V17H17.6406V7.04688H19.3564ZM31.7158 15.6396V17H26.4316V15.6396H31.7158ZM26.917 7.04688V17H25.2012V7.04688H26.917ZM31.0254 11.2031V12.543H26.4316V11.2031H31.0254ZM31.6816 7.04688V8.41406H26.4316V7.04688H31.6816ZM40.7598 11.9141V15.7148C40.6185 15.9017 40.3975 16.1068 40.0967 16.3301C39.8005 16.5488 39.4062 16.738 38.9141 16.8975C38.4219 17.057 37.8089 17.1367 37.0752 17.1367C36.4508 17.1367 35.8789 17.0319 35.3594 16.8223C34.8398 16.6081 34.391 16.2959 34.0127 15.8857C33.639 15.4756 33.3496 14.9766 33.1445 14.3887C32.9395 13.7962 32.8369 13.1217 32.8369 12.3652V11.6748C32.8369 10.9229 32.9303 10.2529 33.1172 9.66504C33.3086 9.07259 33.582 8.57129 33.9375 8.16113C34.293 7.75098 34.7214 7.44108 35.2227 7.23145C35.7285 7.01725 36.3005 6.91016 36.9385 6.91016C37.7542 6.91016 38.4287 7.04688 38.9619 7.32031C39.4997 7.58919 39.9144 7.96289 40.2061 8.44141C40.4977 8.91992 40.6823 9.4668 40.7598 10.082H39.0781C39.0234 9.73568 38.9163 9.42578 38.7568 9.15234C38.6019 8.87891 38.3786 8.66471 38.0869 8.50977C37.7998 8.35026 37.4261 8.27051 36.9658 8.27051C36.5693 8.27051 36.2207 8.3457 35.9199 8.49609C35.6191 8.64648 35.3685 8.86751 35.168 9.15918C34.972 9.45085 34.8239 9.80632 34.7236 10.2256C34.6234 10.6449 34.5732 11.1234 34.5732 11.6611V12.3652C34.5732 12.9121 34.6302 13.3975 34.7441 13.8213C34.8626 14.2451 35.0312 14.6029 35.25 14.8945C35.4733 15.1862 35.7445 15.4072 36.0635 15.5576C36.3825 15.7035 36.7425 15.7764 37.1436 15.7764C37.5355 15.7764 37.8568 15.7445 38.1074 15.6807C38.3581 15.6123 38.5563 15.5326 38.7021 15.4414C38.8525 15.3457 38.9688 15.2546 39.0508 15.168V13.1924H36.9795V11.9141H40.7598ZM42.6602 7.04688H46.1807C46.9372 7.04688 47.582 7.16081 48.1152 7.38867C48.6484 7.61654 49.0563 7.95378 49.3389 8.40039C49.626 8.84245 49.7695 9.38932 49.7695 10.041C49.7695 10.5378 49.6784 10.9753 49.4961 11.3535C49.3138 11.7318 49.0563 12.0508 48.7236 12.3105C48.391 12.5658 47.9945 12.764 47.5342 12.9053L47.0146 13.1582H43.8496L43.8359 11.7979H46.208C46.6182 11.7979 46.96 11.7249 47.2334 11.5791C47.5068 11.4333 47.7119 11.235 47.8486 10.9844C47.9899 10.7292 48.0605 10.4421 48.0605 10.123C48.0605 9.77669 47.9922 9.47591 47.8555 9.2207C47.7233 8.96094 47.5182 8.7627 47.2402 8.62598C46.9622 8.4847 46.609 8.41406 46.1807 8.41406H44.376V17H42.6602V7.04688ZM48.3408 17L46.0029 12.5293L47.8008 12.5225L50.1729 16.9111V17H48.3408ZM55.3545 8.37305L52.3809 17H50.583L54.3291 7.04688H55.4775L55.3545 8.37305ZM57.8428 17L54.8623 8.37305L54.7324 7.04688H55.8877L59.6475 17H57.8428ZM57.6992 13.3086V14.6689H52.2852V13.3086H57.6992ZM61.459 7.04688H62.9902L65.8682 14.7236L68.7393 7.04688H70.2705L66.4697 17H65.2529L61.459 7.04688ZM60.7617 7.04688H62.2178L62.4707 13.6914V17H60.7617V7.04688ZM69.5117 7.04688H70.9746V17H69.2588V13.6914L69.5117 7.04688Z" fill="#46B3F6"/>
<path d="M97.024 5.45657L94.145 19.0342C93.9278 19.9924 93.3613 20.2309 92.5563 19.7796L88.1696 16.5469L86.053 18.5828C85.8188 18.817 85.6228 19.0129 85.1714 19.0129L85.4865 14.5452L93.6169 7.19847C93.9703 6.88334 93.5402 6.70869 93.0674 7.02386L83.0164 13.3527L78.6892 11.9983C77.748 11.7045 77.731 11.0571 78.8851 10.6057L95.8102 4.0852C96.5938 3.79135 97.2795 4.25977 97.024 5.45657Z" fill="#46B3F6"/>
</svg>