<svg width="61" height="24" viewBox="0 0 61 24" fill="none" xmlns="http://www.w3.org/2000/svg">
<path d="M4.84082 15.1816L7.45898 7.04688H9.35254L5.78418 17H4.50586L4.84082 15.1816ZM2.4209 7.04688L5.01855 15.1816L5.37402 17H4.08887L0.53418 7.04688H2.4209ZM12.2988 7.04688V17H10.583V7.04688H12.2988ZM18.1641 12.502H15.6279L15.6143 11.251H17.8291C18.2028 11.251 18.5195 11.1963 18.7793 11.0869C19.0436 10.973 19.2441 10.8112 19.3809 10.6016C19.5176 10.3874 19.5859 10.1299 19.5859 9.8291C19.5859 9.49642 19.5221 9.22526 19.3945 9.01562C19.2669 8.80599 19.071 8.65332 18.8066 8.55762C18.5469 8.46191 18.2142 8.41406 17.8086 8.41406H16.1475V17H14.4316V7.04688H17.8086C18.3555 7.04688 18.8431 7.09928 19.2715 7.2041C19.7044 7.30892 20.0713 7.47298 20.3721 7.69629C20.6774 7.91504 20.9076 8.19303 21.0625 8.53027C21.222 8.86751 21.3018 9.26855 21.3018 9.7334C21.3018 10.1436 21.2038 10.5195 21.0078 10.8613C20.8118 11.1986 20.5225 11.4743 20.1396 11.6885C19.7568 11.9027 19.2806 12.0303 18.7109 12.0713L18.1641 12.502ZM18.0889 17H15.0879L15.8604 15.6396H18.0889C18.4762 15.6396 18.7998 15.5758 19.0596 15.4482C19.3193 15.3161 19.513 15.1361 19.6406 14.9082C19.7728 14.6758 19.8389 14.4046 19.8389 14.0947C19.8389 13.7712 19.7819 13.4909 19.668 13.2539C19.554 13.0124 19.374 12.8278 19.1279 12.7002C18.8818 12.568 18.5605 12.502 18.1641 12.502H16.2363L16.25 11.251H18.7588L19.1484 11.7227C19.6953 11.7409 20.1442 11.8617 20.4951 12.085C20.8506 12.3083 21.1149 12.5977 21.2881 12.9531C21.4613 13.3086 21.5479 13.6914 21.5479 14.1016C21.5479 14.735 21.4089 15.266 21.1309 15.6943C20.8574 16.1227 20.4632 16.4486 19.9482 16.6719C19.4333 16.8906 18.8135 17 18.0889 17ZM29.792 15.6396V17H24.5078V15.6396H29.792ZM24.9932 7.04688V17H23.2773V7.04688H24.9932ZM29.1016 11.2031V12.543H24.5078V11.2031H29.1016ZM29.7578 7.04688V8.41406H24.5078V7.04688H29.7578ZM31.1934 7.04688H34.7139C35.4704 7.04688 36.1152 7.16081 36.6484 7.38867C37.1816 7.61654 37.5895 7.95378 37.8721 8.40039C38.1592 8.84245 38.3027 9.38932 38.3027 10.041C38.3027 10.5378 38.2116 10.9753 38.0293 11.3535C37.847 11.7318 37.5895 12.0508 37.2568 12.3105C36.9242 12.5658 36.5277 12.764 36.0674 12.9053L35.5479 13.1582H32.3828L32.3691 11.7979H34.7412C35.1514 11.7979 35.4932 11.7249 35.7666 11.5791C36.04 11.4333 36.2451 11.235 36.3818 10.9844C36.5231 10.7292 36.5938 10.4421 36.5938 10.123C36.5938 9.77669 36.5254 9.47591 36.3887 9.2207C36.2565 8.96094 36.0514 8.7627 35.7734 8.62598C35.4954 8.4847 35.1423 8.41406 34.7139 8.41406H32.9092V17H31.1934V7.04688ZM36.874 17L34.5361 12.5293L36.334 12.5225L38.7061 16.9111V17H36.874Z" fill="#625DC9"/>
<path d="M45 7.58287C45.0236 6.59634 45.465 5.8524 46.261 5.3187C46.592 5.09229 46.9545 4.91439 47.3485 4.83352C47.7584 4.74457 48.1524 4.80118 48.4992 5.06803C48.7277 5.23784 48.9169 5.44808 49.106 5.65833C49.7365 6.36992 50.2724 7.13812 50.7058 7.99527C50.7768 8.14082 50.8398 8.29446 50.8871 8.45619C51.0211 8.91711 50.9186 9.32142 50.6192 9.67722C50.5088 9.8066 50.3827 9.91981 50.2487 10.0249C50.1227 10.1139 49.9966 10.2109 49.8783 10.3241C49.6025 10.591 49.5237 10.9144 49.6104 11.2864C49.6419 11.44 49.6971 11.5856 49.7522 11.7231C50.0754 12.4508 50.5088 13.1058 51.0684 13.6719C51.3994 14.0034 51.754 14.2945 52.1481 14.5452C52.5264 14.7878 52.9046 15.0142 53.3302 15.1678C53.7243 15.3134 54.0238 15.2244 54.2838 14.8848C54.3942 14.7392 54.4887 14.5856 54.6148 14.4481C54.8513 14.1894 55.1192 13.9953 55.4581 13.9144C55.8285 13.8255 56.1831 13.8902 56.522 14.0438C56.8451 14.1813 57.1289 14.3915 57.4126 14.5937C57.98 14.998 58.5317 15.4266 59.0676 15.8713C59.2095 15.9926 59.3355 16.1301 59.4538 16.2837C59.7296 16.6557 59.7848 17.0681 59.6666 17.5048C59.5562 17.9253 59.3513 18.2891 59.0834 18.6207C58.6184 19.2029 58.0509 19.6395 57.3495 19.8741C57.1604 19.9387 56.9712 19.9792 56.7742 19.9953C56.522 20.0196 56.2856 19.9307 56.0492 19.8579C55.8206 19.7932 55.6078 19.68 55.395 19.5829C54.3311 19.0978 53.3066 18.5236 52.3372 17.8606C50.8792 16.8659 49.5789 15.7015 48.444 14.3349C47.6007 13.3161 46.8678 12.2163 46.2452 11.0357C45.8433 10.2837 45.4886 9.50741 45.1891 8.70686C45.0709 8.35915 45 7.91441 45 7.58287Z" fill="#625DC9"/>
<path d="M60.1787 10.8745C60.1708 11.1414 60.2023 11.3354 60.1787 11.5214C60.1235 11.9823 59.7295 12.2249 59.3118 12.047C59.0596 11.9419 58.9808 11.7155 58.9571 11.4648C58.9335 11.1575 58.9098 10.8502 58.8626 10.543C58.7049 9.59687 58.4527 8.68311 57.9562 7.85831C57.5858 7.24375 57.1051 6.7424 56.5061 6.34617C55.8126 5.88525 55.0403 5.6184 54.2364 5.43242C53.8896 5.35155 53.535 5.28686 53.1804 5.25452C53.0937 5.24643 53.0149 5.23026 52.936 5.19791C52.6917 5.10896 52.5656 4.92298 52.5814 4.65613C52.6129 4.18712 52.873 4.00114 53.2276 4.00114C54.5753 3.97688 55.8047 4.34076 56.9317 5.09279C57.5937 5.53754 58.1848 6.06315 58.6734 6.70197C59.6191 7.93917 60.1708 9.34619 60.1787 10.8745Z" fill="#625DC9"/>
<path d="M58.1376 10.7288C58.1297 10.8663 58.1533 11.0442 58.1139 11.2221C58.0588 11.5213 57.8539 11.6911 57.5465 11.6992C57.2234 11.7072 57.0185 11.5617 56.9476 11.2625C56.916 11.1493 56.916 11.028 56.9003 10.9067C56.8451 10.3649 56.719 9.83122 56.5141 9.32178C56.2304 8.59402 55.7181 8.10075 55.0167 7.79347C54.5281 7.58323 54.0237 7.42959 53.5036 7.34872C53.3617 7.32447 53.2277 7.29212 53.1016 7.22743C53.0386 7.19508 52.9834 7.15465 52.944 7.09805C52.7706 6.87972 52.7785 6.64522 52.8731 6.40263C52.9519 6.1843 53.1174 6.063 53.3459 6.03874C53.5351 6.01448 53.7242 6.04683 53.9134 6.07917C54.4414 6.16004 54.9537 6.29751 55.4423 6.53201C56.0649 6.83929 56.6008 7.26786 57.0579 7.80156C57.4441 8.26248 57.7357 8.77191 57.9248 9.34604C58.0588 9.79079 58.1297 10.2355 58.1376 10.7288Z" fill="#625DC9"/>
<path d="M56.1757 10.5756C56.1757 10.7373 56.1757 10.899 56.1205 11.0527C56.0417 11.2872 55.8762 11.4246 55.6398 11.457C55.3955 11.4893 55.1985 11.4004 55.0645 11.1901C54.9936 11.085 54.962 10.9718 54.9463 10.8505C54.9147 10.6483 54.8911 10.4381 54.8123 10.2521C54.6468 9.83971 54.3315 9.59712 53.9217 9.48391C53.8429 9.45965 53.7562 9.44348 53.6774 9.4273C53.6144 9.41113 53.5434 9.39496 53.4804 9.37879C53.1888 9.28984 53.0391 9.10385 53.0391 8.84509C53.0391 8.53781 53.2046 8.28714 53.4804 8.20627C53.7484 8.12541 54.0242 8.14158 54.2921 8.21436C54.9305 8.40034 55.4034 8.81275 55.7738 9.36261C56.0181 9.71841 56.1757 10.1227 56.1757 10.5756Z" fill="#625DC9"/>
</svg>