<svg width="56" height="56" viewBox="0 0 56 56" fill="none" xmlns="http://www.w3.org/2000/svg">
<rect x="0.5" y="0.5" width="55" height="55" rx="27.5" stroke="#5C594D"/>
<path d="M43.6812 21.5999C43.6812 21.5999 43.3688 19.3937 42.4062 18.4249C41.1875 17.1499 39.825 17.1437 39.2 17.0687C34.725 16.7437 28.0063 16.7437 28.0063 16.7437H27.9937C27.9937 16.7437 21.275 16.7437 16.8 17.0687C16.175 17.1437 14.8125 17.1499 13.5938 18.4249C12.6313 19.3937 12.325 21.5999 12.325 21.5999C12.325 21.5999 12 24.1937 12 26.7812V29.2062C12 31.7937 12.3187 34.3874 12.3187 34.3874C12.3187 34.3874 12.6312 36.5937 13.5875 37.5624C14.8063 38.8374 16.4063 38.7937 17.1188 38.9312C19.6813 39.1749 28 39.2499 28 39.2499C28 39.2499 34.725 39.2374 39.2 38.9187C39.825 38.8437 41.1875 38.8374 42.4062 37.5624C43.3688 36.5937 43.6812 34.3874 43.6812 34.3874C43.6812 34.3874 44 31.7999 44 29.2062V26.7812C44 24.1937 43.6812 21.5999 43.6812 21.5999ZM24.6938 32.1499V23.1562L33.3375 27.6687L24.6938 32.1499Z" fill="#EDEBDE"/>
</svg>
